<svg width="28" height="25" viewBox="0 0 28 25" fill="none" xmlns="http://www.w3.org/2000/svg">
<path d="M26.958 12.5275L26.9355 12.5386L23.1473 3.25484H24.8758C25.1858 3.25484 25.4371 3.00741 25.4371 2.70223C25.4371 2.39706 25.1858 2.14963 24.8758 2.14963H14.3138V0.552604C14.3138 0.247428 14.0625 0 13.7526 0C13.4426 0 13.1913 0.247428 13.1913 0.552604V2.1441H2.63487C2.32494 2.1441 2.07365 2.39153 2.07365 2.69671C2.07365 3.00188 2.32494 3.24931 2.63487 3.24931H4.43637L0.642554 12.5275C0.614493 12.5922 0.59927 12.6617 0.597656 12.732C0.597656 15.2697 2.68692 17.3269 5.26416 17.3269C7.84141 17.3269 9.93067 15.2697 9.93067 12.732C9.92906 12.6617 9.91384 12.5922 9.88577 12.5275L6.09757 3.24378H13.1913V20.3303C10.5143 20.5292 8.421 22.1318 8.421 24.0714C8.421 24.3766 8.67229 24.624 8.98222 24.624H18.5229C18.8328 24.624 19.0841 24.3766 19.0841 24.0714C19.0841 22.1318 16.9908 20.5292 14.3138 20.3303V3.24378H21.4805L17.7147 12.5275C17.6867 12.5922 17.6714 12.6617 17.6698 12.732C17.6698 15.2697 19.7591 17.3269 22.3363 17.3269C24.9136 17.3269 27.0029 15.2697 27.0029 12.732C27.0012 12.6617 26.986 12.5922 26.958 12.5275ZM5.26136 16.23C3.52313 16.2276 2.04279 14.9852 1.76498 13.2956H8.73528C8.45888 14.977 6.9911 16.2168 5.26136 16.23ZM8.53325 12.1904H2.0007L5.27258 4.17216L8.53325 12.1904ZM17.8606 23.5188H9.63884C10.0541 22.3307 11.7658 21.4134 13.7469 21.4134C15.728 21.4134 17.4454 22.3307 17.8606 23.5188ZM22.3111 4.17768L25.5718 12.1904H19.0392L22.3111 4.17768ZM22.3111 16.23V16.2355C20.5795 16.2219 19.1111 14.9792 18.8372 13.2956H25.8075C25.5297 14.9852 24.0493 16.2276 22.3111 16.23Z" fill="black"/>
</svg>
