<svg width="29" height="25" viewBox="0 0 29 25" fill="none" xmlns="http://www.w3.org/2000/svg">
<path d="M20.65 0C18.2293 0 15.9633 1.00889 14.4545 2.69927C12.9458 1.00883 10.6798 0 8.25901 0C3.83531 0 0.236328 3.31281 0.236328 7.3849C0.236328 10.5735 2.30187 14.2616 6.37546 18.3468C9.5104 21.4906 12.9207 23.9248 13.8912 24.596L14.4543 24.9854L15.0174 24.5961C15.9879 23.9249 19.3984 21.4907 22.5334 18.347C26.6071 14.2618 28.6727 10.5736 28.6727 7.3849C28.6727 3.31281 25.0737 0 20.65 0ZM21.1521 17.1798C18.5735 19.7656 15.7993 21.8559 14.4543 22.8193C13.1094 21.8559 10.3353 19.7656 7.75671 17.1797C4.06343 13.476 2.11125 10.0889 2.11125 7.3849C2.11125 4.26452 4.86914 1.72587 8.25901 1.72587C10.4898 1.72587 12.5496 2.84504 13.6346 4.64668L14.4545 6.00817L15.2744 4.64668C16.3594 2.8451 18.4192 1.72587 20.65 1.72587C24.0399 1.72587 26.7978 4.26446 26.7978 7.3849C26.7978 10.0891 24.8455 13.4761 21.1521 17.1798Z" fill="#E8AA31"/>
</svg>
